<svg width="13" height="12" viewBox="0 0 13 12" fill="none" xmlns="http://www.w3.org/2000/svg">
<path d="M12.0055 4.16531L8.28631 3.62576L6.62371 0.261253C6.5783 0.169134 6.50359 0.0945624 6.41131 0.0492344C6.17986 -0.0648168 5.89861 0.0302259 5.78289 0.261253L4.12029 3.62576L0.401051 4.16531C0.298512 4.17993 0.204762 4.22819 0.132985 4.3013C0.0462101 4.39032 -0.0016068 4.5101 4.12294e-05 4.6343C0.00168926 4.7585 0.0526674 4.87697 0.141774 4.96367L2.83269 7.58246L2.19695 11.2804C2.18204 11.3664 2.19158 11.4548 2.22448 11.5357C2.25738 11.6166 2.31232 11.6867 2.38309 11.738C2.45385 11.7893 2.53759 11.8198 2.62483 11.826C2.71207 11.8322 2.7993 11.8139 2.87664 11.7731L6.2033 10.0273L9.52996 11.7731C9.62078 11.8214 9.72625 11.8374 9.82732 11.8199C10.0822 11.776 10.2536 11.5348 10.2096 11.2804L9.5739 7.58246L12.2648 4.96367C12.3381 4.89202 12.3864 4.79844 12.4011 4.69609C12.4406 4.44021 12.2619 4.20333 12.0055 4.16531Z" fill="#FFC436"/>
</svg>
