<svg width="14" height="12" viewBox="0 0 14 12" fill="none" xmlns="http://www.w3.org/2000/svg">
<path d="M9.66602 6H10.9993V8.66667H9.66602V6Z" fill="#279BBB"/>
<path d="M12.334 2.66667V1.33333C12.334 0.598 11.736 0 11.0007 0H2.33398C1.23132 0 0.333984 0.897333 0.333984 2V10C0.333984 11.4673 1.52998 12 2.33398 12H12.334C13.0693 12 13.6673 11.402 13.6673 10.6667V4C13.6673 3.26467 13.0693 2.66667 12.334 2.66667ZM2.33398 1.33333H11.0007V2.66667H2.33398C2.16233 2.65899 2.00025 2.5854 1.8815 2.46121C1.76275 2.33703 1.69647 2.17182 1.69647 2C1.69647 1.82818 1.76275 1.66297 1.8815 1.53879C2.00025 1.4146 2.16233 1.34101 2.33398 1.33333ZM12.334 10.6667H2.34198C2.03398 10.6587 1.66732 10.5367 1.66732 10V3.87667C1.87665 3.952 2.09865 4 2.33398 4H12.334V10.6667Z" fill="#279BBB"/>
</svg>
