<svg id="Layer_1" data-name="Layer 1" xmlns="http://www.w3.org/2000/svg" viewBox="0 0 372.29 363.28"><defs><style>.cls-1{fill:#fff;}.cls-2{fill:#101820;}.cls-3{fill:#fe5000;}</style></defs><path class="cls-1" d="M607.09,158.15c-32.67-19.36-66.89-33.73-103-42.15v0L481.9,157.7c-2.07-.35-4.12-.67-6.13-.95a16,16,0,0,0-2.14-3.45c-9.91-12-39.34-11.39-50.18-6a39.44,39.44,0,0,0-10.94,8.84,193.75,193.75,0,0,0-46.78,12.27l-28-52.41c-36.06,8.42-70.28,22.79-102.95,42.15l45.66,78.77c-3.82,4.36-10.16,14.41-13.72,21.35a28.83,28.83,0,0,0,9.38,9.74C263.25,285,245.74,316.63,237,338.25c40.31,43.63,71.09,65.66,126.22,41.45L421,479.28,607.07,158.21Z" transform="translate(-234.8 -116)"/><path class="cls-2" d="M276.51,257.53a31.26,31.26,0,0,0,11.3,8.1c-14.62,19-31.17,47.8-41.29,70.86,44.56,44.92,66.78,57.53,120,33L421,463.32l175.19-302.2a349.15,349.15,0,0,0-87.88-35.8l-22,41.24c-5.53-1-11.05-1.9-16.54-2.57a12.94,12.94,0,0,0-2.27-5.63c-6.71-8.15-31.42-8.39-40.4-3.92-3.25,1.61-6.92,5-10.49,9.23a184.73,184.73,0,0,0-54.43,15l-28.47-53.34a348.72,348.72,0,0,0-87.9,35.78L290,237.43a232.92,232.92,0,0,0-13.49,20.1" transform="translate(-234.8 -116)"/><path class="cls-3" d="M345.85,247.93c2.27,2.5,24.45,7.19,23.52-10.27a41.09,41.09,0,0,0-23.52,10.27" transform="translate(-234.8 -116)"/><path class="cls-1" d="M385.69,322.88,388,309.52l15.38.68-4.62-17.86c-27.95,16.53-34.21,48.13-40.11,60.49a131.3,131.3,0,0,1,65.73-30.93,72,72,0,0,0-12.84-27L413.07,318l-18.89.46-3.93,8.29-11.56,1.05L372.23,337,376,325Z" transform="translate(-234.8 -116)"/><path class="cls-3" d="M325.54,182.7c1.63-4.09,8.1-10.73,19.39-13.54L328.19,137.8a338.57,338.57,0,0,0-67.75,27.3l36.19,62.43a207.54,207.54,0,0,1,27.45-25.42c-1-6.76-.86-13.57,1.46-19.41m171.35-13.38,16.81-31.49a338.83,338.83,0,0,1,67.74,27.33l-20.63,35.58c-10.27-6.52-25-12.68-37.83-17l3.35-5.78a217.23,217.23,0,0,0-29.44-8.65" transform="translate(-234.8 -116)"/><path class="cls-1" d="M431.63,197.32a142.85,142.85,0,0,0-16.87-2.78c6.56-12.49,23.45-23.51,32-21-4.58,2.54-12.89,12.38-15.11,23.77m75.52-7.18,3.41-5.88a254.34,254.34,0,0,0-40.36-9.12,78.44,78.44,0,0,1-5.28,23.76c8.89,6.17,18.45,18.33,20.52,29.18-7.37-11-20.45-19.42-35.36-25.17,5.74-10.82,10.59-31.07,6.85-36.44-3.22-4.63-18.15-5.25-26.08-2-8.5,3.51-19.8,16.24-30.2,29.18.88-5,3.66-11.43,7.29-17.68-68.37,12.32-106.47,60.24-118.55,77.85a25.73,25.73,0,0,0,8.1,3c2.16-7.69,15.6-19.17,21.68-23.22-5.16,6.11-10.73,18.56-9.73,23.69,23.27-.22,36.87-29.92,73.89-26.93l-6.64,4.41c1.47,6.9-.23,19.81-16.93,22.34a25.39,25.39,0,0,1,11.6,6.27c-35.19-7.64-51,7.87-72.85,4.54-16.5,22.87-27.69,41.19-39.69,65.5,9.72-5.18,32.36-6.29,44.77-1.66l.62,11.35c-11.93,3.3-13.75,18.44,4.73,25.14,12.08,4.38,34.87,4.76,43.51-21.73,7.77-23.82,23.14-60.87,63.51-74.46L411.18,281c11.71,10.38,22.74,30.85,25.29,49.87a112.79,112.79,0,0,0-77.82,33.38c21-12.08,41.41-18.13,67.76-18.82,33.31-.87,42.09-21.18,32.41-48.67,12.5,9.6,16.16,29.15,7.93,43.24-6.44,11-20.21,16.23-38.1,15.81-20.38-.47-38.3,2.82-50.67,7.82l21.55,37.17,7-12.07,22.63,39.08L555.45,210c-12-7.71-32.7-15.79-48.3-19.84" transform="translate(-234.8 -116)"/></svg>