<svg width="48" height="38" viewBox="0 0 48 38" fill="none" xmlns="http://www.w3.org/2000/svg">
<path d="M40.634 3.38202C37.5747 1.96828 34.294 0.926697 30.8638 0.330139C30.8013 0.318626 30.7389 0.347398 30.7067 0.404945C30.2848 1.16071 29.8175 2.14666 29.4902 2.92162C25.8008 2.36536 22.1304 2.36536 18.5166 2.92162C18.1893 2.12944 17.705 1.16071 17.2811 0.404945C17.249 0.349318 17.1866 0.320546 17.1241 0.330139C13.6958 0.92479 10.4151 1.96637 7.35387 3.38202C7.32737 3.39353 7.30465 3.41273 7.28958 3.43765C1.06678 12.8004 -0.6379 21.9331 0.19836 30.9526C0.202144 30.9967 0.22674 31.0389 0.260796 31.0657C4.36642 34.1022 8.34341 35.9457 12.2466 37.1675C12.309 37.1867 12.3752 37.1637 12.415 37.1119C13.3383 35.8421 14.1613 34.5032 14.867 33.0952C14.9086 33.0127 14.8688 32.9149 14.7837 32.8823C13.4783 32.3835 12.2352 31.7755 11.0395 31.0849C10.9449 31.0293 10.9373 30.8931 11.0243 30.8278C11.2759 30.6379 11.5276 30.4404 11.7679 30.2409C11.8114 30.2044 11.872 30.1967 11.9231 30.2198C19.7786 33.8318 28.2831 33.8318 36.0459 30.2198C36.097 30.1948 36.1576 30.2025 36.203 30.239C36.4433 30.4384 36.6949 30.6379 36.9484 30.8278C37.0354 30.8931 37.0298 31.0293 36.9352 31.0849C35.7394 31.7889 34.4964 32.3835 33.189 32.8804C33.1039 32.913 33.0661 33.0127 33.1077 33.0952C33.8285 34.5012 34.6515 35.8401 35.5578 37.11C35.5956 37.1637 35.6637 37.1867 35.7262 37.1675C39.6483 35.9457 43.6252 34.1022 47.7309 31.0657C47.7668 31.0389 47.7895 30.9986 47.7933 30.9545C48.7942 20.527 46.117 11.4692 40.6964 3.43955C40.6832 3.41273 40.6605 3.39353 40.634 3.38202ZM16.04 25.4607C13.675 25.4607 11.7263 23.2739 11.7263 20.5884C11.7263 17.9029 13.6372 15.7162 16.04 15.7162C18.4617 15.7162 20.3916 17.9221 20.3538 20.5884C20.3538 23.2739 18.4428 25.4607 16.04 25.4607ZM31.9895 25.4607C29.6245 25.4607 27.6758 23.2739 27.6758 20.5884C27.6758 17.9029 29.5867 15.7162 31.9895 15.7162C34.4113 15.7162 36.3411 17.9221 36.3033 20.5884C36.3033 23.2739 34.4113 25.4607 31.9895 25.4607Z" fill="white"/>
</svg>
