<svg width="24" height="24" viewBox="0 0 24 24" fill="none" xmlns="http://www.w3.org/2000/svg">
<path d="M23.7662 9.64963H22.7996V9.59983H11.9998V14.3998H18.7815C17.7921 17.1939 15.1335 19.1997 11.9998 19.1997C8.02366 19.1997 4.79992 15.9759 4.79992 11.9998C4.79992 8.02366 8.02366 4.79992 11.9998 4.79992C13.8352 4.79992 15.5049 5.4923 16.7763 6.62329L20.1705 3.22914C18.0273 1.23178 15.1605 0 11.9998 0C5.37291 0 0 5.37291 0 11.9998C0 18.6267 5.37291 23.9996 11.9998 23.9996C18.6267 23.9996 23.9996 18.6267 23.9996 11.9998C23.9996 11.1952 23.9168 10.4098 23.7662 9.64963Z" fill="#FFC107"/>
<path d="M1.38281 6.41449L5.32534 9.30584C6.39213 6.66468 8.97568 4.79992 11.999 4.79992C13.8344 4.79992 15.5042 5.4923 16.7755 6.62328L20.1697 3.22914C18.0265 1.23178 15.1598 0 11.999 0C7.38991 0 3.39278 2.60215 1.38281 6.41449Z" fill="#FF3D00"/>
<path d="M12.0002 24.0001C15.0997 24.0001 17.9161 22.8139 20.0455 20.8849L16.3315 17.7422C15.0863 18.6892 13.5646 19.2014 12.0002 19.2001C8.87905 19.2001 6.2289 17.21 5.23051 14.4326L1.31738 17.4476C3.30335 21.3337 7.33648 24.0001 12.0002 24.0001Z" fill="#4CAF50"/>
<path d="M23.7664 9.64965H22.7998V9.59985H12V14.3998H18.7817C18.3084 15.7296 17.4559 16.8916 16.3295 17.7423L16.3313 17.7411L20.0453 20.8839C19.7825 21.1227 23.9998 17.9997 23.9998 11.9998C23.9998 11.1952 23.917 10.4098 23.7664 9.64965Z" fill="#1976D2"/>
</svg>
