<svg width="48" height="48" viewBox="0 0 48 48" fill="currentColor" xmlns="http://www.w3.org/2000/svg">
<path fill-rule="evenodd" clip-rule="evenodd" d="M48 24C48 37.2548 37.2548 48 24 48C10.7452 48 0 37.2548 0 24C0 10.7452 10.7452 0 24 0C37.2548 0 48 10.7452 48 24ZM24.8601 17.7181C22.5257 18.689 17.8603 20.6986 10.8638 23.7469C9.72766 24.1987 9.13251 24.6407 9.07834 25.0729C8.98677 25.8032 9.90143 26.0908 11.147 26.4825C11.3164 26.5358 11.4919 26.591 11.6719 26.6495C12.8973 27.0478 14.5457 27.5138 15.4026 27.5323C16.1799 27.5491 17.0475 27.2286 18.0053 26.5709C24.5423 22.1582 27.9168 19.9279 28.1286 19.8798C28.2781 19.8459 28.4852 19.8032 28.6255 19.9279C28.7659 20.0527 28.7521 20.2889 28.7372 20.3523C28.6466 20.7385 25.0562 24.0765 23.1982 25.8038C22.619 26.3423 22.2081 26.7243 22.1242 26.8115C21.936 27.0069 21.7443 27.1918 21.56 27.3694C20.4215 28.4669 19.5678 29.2899 21.6072 30.6338C22.5873 31.2796 23.3715 31.8137 24.1539 32.3465C25.0083 32.9284 25.8606 33.5088 26.9632 34.2316C27.2441 34.4157 27.5124 34.607 27.7738 34.7933C28.7681 35.5022 29.6615 36.1391 30.7652 36.0375C31.4065 35.9785 32.0689 35.3755 32.4053 33.577C33.2004 29.3265 34.7633 20.1172 35.1244 16.3222C35.1561 15.9897 35.1163 15.5642 35.0843 15.3774C35.0523 15.1906 34.9855 14.9245 34.7427 14.7274C34.4552 14.4941 34.0113 14.4449 33.8127 14.4484C32.91 14.4643 31.5251 14.9459 24.8601 17.7181Z" fill="white"/>
</svg>
