<svg width="81" height="16" viewBox="0 0 81 16" fill="none" xmlns="http://www.w3.org/2000/svg">
<path d="M1.05382 0L0 2.69577V13.7113H3.75042V14.995L5.85888 15.7031L7.85155 13.7113H10.8989L15 9.6093V0H1.05382ZM13.593 8.9062L11.2496 11.2504H7.49917L5.50733 13.2423V11.2504H2.34339V1.4062H13.593V8.9062ZM11.2504 4.10197V8.2031H9.84422V4.10197H11.2504ZM7.5 4.10197V8.2031H6.0938V4.10197H7.5Z" fill="#9147FF"/>
<path d="M19.8215 5.04V2.96H28.8455V5.04H25.4855V14H23.1815V5.04H19.8215ZM29.6824 3.392L30.0024 2.96H31.8904L33.6664 11.92H33.8424L35.7464 4.016H38.0184L39.9224 11.92H40.0984L41.8744 2.96H43.7624L44.0824 3.392L41.9224 14H38.2584L36.8824 8.16L35.5064 14H31.8424L29.6824 3.392ZM45.8433 14V2.96H48.1473V14H45.8433ZM49.8371 5.04V2.96H58.8611V5.04H55.5011V14H53.1971V5.04H49.8371ZM60.402 11.312V5.648C60.402 3.856 61.298 2.96 63.09 2.96H67.362L68.434 3.792V5.04H63.186C62.866 5.04 62.706 5.2 62.706 5.52V11.44C62.706 11.76 62.866 11.92 63.186 11.92H68.434V13.168L67.362 14H63.09C61.298 14 60.402 13.104 60.402 11.312ZM70.5464 14V2.96H72.8504V7.28H76.9464V2.96H79.2504V14H76.9464V9.36H72.8504V14H70.5464Z" fill="white"/>
</svg>
