<svg width="70" height="17" viewBox="0 0 70 17" fill="none" xmlns="http://www.w3.org/2000/svg">
<path d="M21.8601 2.83493C21.7318 2.36108 21.4817 1.9291 21.1346 1.582C20.7875 1.2349 20.3555 0.984796 19.8816 0.856594C18.1468 0.383545 11.1653 0.383545 11.1653 0.383545C11.1653 0.383545 4.1836 0.3979 2.44904 0.87095C1.97521 0.999172 1.54324 1.24929 1.19614 1.59638C0.849046 1.94348 0.598932 2.37545 0.47071 2.84928C-0.0540192 5.93162 -0.257595 10.6281 0.485066 13.587C0.613288 14.0608 0.863401 14.4928 1.2105 14.8399C1.5576 15.187 1.98957 15.4371 2.4634 15.5653C4.19809 16.0383 11.1797 16.0383 11.1797 16.0383C11.1797 16.0383 18.1613 16.0383 19.896 15.5653C20.3698 15.4371 20.8018 15.187 21.1489 14.8399C21.496 14.4928 21.7461 14.0608 21.8743 13.587C22.4276 10.5004 22.5982 5.8068 21.8599 2.83506L21.8601 2.83493Z" fill="#FF0000"/>
<path d="M8.94336 11.5657L14.7351 8.21113L8.94336 4.85645V11.5657Z" fill="white"/>
<path d="M67.162 3.92809C67.9217 3.92809 68.4951 4.07137 68.8965 4.34372C69.2979 4.6162 69.5848 5.04618 69.7568 5.63407C69.9288 6.22183 70.0004 7.02451 70.0004 8.05674V9.73416H66.3161V10.2501L66.3735 11.6694C66.4164 11.9848 66.4882 12.2142 66.6028 12.3575C66.7176 12.5009 66.9038 12.5726 67.1476 12.5726C67.4774 12.5726 67.7068 12.4437 67.8214 12.1857C67.9504 11.9275 68.0077 11.4974 68.0221 10.9097L69.9288 11.0244C69.9431 11.1104 69.9431 11.2251 69.9431 11.3684C69.9431 12.2715 69.6993 12.9454 69.1976 13.3898C68.6958 13.8341 68.0077 14.0635 67.1045 14.0635C66.015 14.0635 65.2553 13.7195 64.8252 13.0458C64.3952 12.3719 64.1658 11.3109 64.1658 9.89179V8.1571C64.2144 5.72007 64.643 3.9352 67.162 3.92809ZM40.6548 4.11444V11.2967C40.6548 11.7268 40.6977 12.0423 40.7981 12.2286C41.0016 12.6271 41.5292 12.5253 41.8159 12.329C41.9815 12.2171 42.1149 12.0639 42.203 11.8846V4.1143H44.3964V13.9057H42.676L42.4897 12.7015H42.4468C41.9737 13.6047 41.2711 14.0634 40.3394 14.0634C38.9052 14.0598 38.5542 13.0265 38.4707 11.977L38.4652 11.9031C38.4549 11.7441 38.4488 11.5849 38.447 11.4257V4.11444H40.6546H40.6548ZM51.9659 4.11444V11.2967C51.9659 11.7268 52.0088 12.0423 52.1091 12.2286C52.3129 12.6271 52.8403 12.5253 53.127 12.329C53.2925 12.2171 53.426 12.0639 53.5141 11.8846V4.1143H55.7075V13.9057H53.9871L53.8008 12.7015H53.7578C53.2848 13.6047 52.5822 14.0634 51.6504 14.0634C50.2163 14.0598 49.8653 13.0265 49.7818 11.977L49.7763 11.9031C49.766 11.7441 49.7599 11.5849 49.7581 11.4257V4.11444H51.9659ZM34.2895 3.92809C35.0063 3.92809 35.5941 4.07137 36.0242 4.37243C36.4542 4.67348 36.784 5.13231 36.9847 5.763C37.1854 6.39383 37.2857 7.23957 37.2857 8.28616V9.70531C37.2857 10.7519 37.1854 11.5834 36.9847 12.2141C36.784 12.8451 36.4686 13.3038 36.0242 13.6048C35.5799 13.8915 34.9776 14.0492 34.2322 14.0492C33.458 14.0635 32.8559 13.9059 32.4115 13.6192C31.9672 13.3181 31.6517 12.8593 31.4654 12.2286C31.279 11.5978 31.193 10.7663 31.193 9.7198V8.30038C31.193 7.25379 31.2933 6.39369 31.5084 5.76286C31.7234 5.11782 32.0531 4.65899 32.5119 4.37243C32.9706 4.08559 33.5584 3.92795 34.2895 3.92795V3.92809ZM59.1481 0V5.16089H59.1625C59.3632 4.78819 59.6212 4.48713 59.9797 4.25772C60.3144 4.03264 60.7088 3.91284 61.1121 3.91373C61.6426 3.91373 62.044 4.05702 62.3451 4.32936C62.6461 4.6162 62.8612 5.06054 62.9901 5.67701C63.1152 6.2742 63.1863 7.10012 63.1907 8.14165L63.1908 8.24323V9.79144C63.1908 11.2393 63.0045 12.3146 62.6603 13.0027C62.3021 13.6908 61.7573 14.0349 61.0118 14.0349C60.5961 14.0349 60.2233 13.9346 59.8793 13.7482C59.5751 13.5709 59.3228 13.3167 59.1479 13.0111L59.1194 12.9596H59.0765L58.8471 13.8915H57.0264V0.000136775H59.1481V0ZM50.3744 0.501761V2.27925H48.1954V13.9057H46.0451V2.27939H43.8517V0.501897H50.3746L50.3744 0.501761ZM26.7344 0.501761L26.7358 0.507229C26.7567 0.600335 27.0465 1.88892 27.3654 3.39023L27.3905 3.50918L27.4285 3.68897L27.454 3.80969L27.4667 3.87026L27.4921 3.99166L27.5048 4.0525L27.5301 4.17432L27.567 4.35247C27.7824 5.39208 27.9879 6.4347 28.1108 7.18229H28.1682C28.2859 6.51168 28.4569 5.65349 28.6393 4.77725L28.6872 4.54839C28.7112 4.43381 28.7353 4.31924 28.7596 4.20495L28.7971 4.02762C29.0448 2.86644 29.2998 1.70685 29.5623 0.548929L29.5664 0.530472L29.573 0.501761H31.7664L29.2289 9.54781V13.8915H27.0642V9.56203H27.0498L24.541 0.501624H26.7344V0.501761ZM34.2465 5.44759C33.9454 5.44759 33.7447 5.60536 33.6158 5.93513C33.4867 6.26476 33.4294 6.76652 33.4294 7.46912V10.5226C33.4294 11.2394 33.4867 11.7698 33.6014 12.0853C33.7161 12.4006 33.9312 12.5584 34.2465 12.5584C34.5475 12.5584 34.7626 12.4006 34.8916 12.0853C35.0207 11.7698 35.078 11.2394 35.078 10.5226V7.46899C35.078 6.76652 35.0206 6.25041 34.8916 5.93499C34.7626 5.60536 34.5475 5.44759 34.2465 5.44759ZM59.5352 5.73443C59.3605 5.89576 59.2362 6.09468 59.1622 6.34338L59.1481 6.39383V11.9561C59.3259 12.2572 59.5783 12.4579 60.0226 12.4722C60.252 12.4722 60.4382 12.3862 60.5818 12.2142C60.7251 12.0423 60.8254 11.7554 60.8827 11.354C60.9378 10.9687 60.9665 10.438 60.9687 9.76205V8.40087C60.9687 7.62676 60.94 7.039 60.8971 6.62324C60.8396 6.20748 60.7681 5.90642 60.6391 5.73443C60.3896 5.37595 59.8506 5.38032 59.5352 5.73443ZM67.119 5.40466C66.8753 5.41902 66.7031 5.49066 66.6028 5.61972C66.4882 5.763 66.4164 5.97806 66.3735 6.29347C66.3313 6.60246 66.3168 7.68254 66.3161 7.72575V8.42958H67.9217V7.80887V7.82077C67.9208 8.03774 67.9162 7.69485 67.9064 7.27389L67.905 7.21729C67.896 6.84732 67.8829 6.43484 67.8644 6.29347C67.8214 5.96371 67.7496 5.73429 67.635 5.60536C67.5203 5.4763 67.3483 5.40466 67.1189 5.40466H67.119Z" fill="white"/>
</svg>
